<svg width="2794" height="1989" xmlns="http://www.w3.org/2000/svg" xmlns:xlink="http://www.w3.org/1999/xlink" xml:space="preserve" overflow="hidden"><defs><filter id="fx0" x="-10%" y="-10%" width="120%" height="120%" filterUnits="userSpaceOnUse" primitiveUnits="userSpaceOnUse"><feComponentTransfer color-interpolation-filters="sRGB"><feFuncR type="discrete" tableValues="0 0"/><feFuncG type="discrete" tableValues="0 0"/><feFuncB type="discrete" tableValues="0 0"/><feFuncA type="linear" slope="0.4" intercept="0"/></feComponentTransfer><feGaussianBlur stdDeviation="5.99092 5.99178"/></filter><clipPath id="clip1"><rect x="862" y="79" width="2794" height="1989"/></clipPath><clipPath id="clip2"><rect x="286.603" y="255.628" width="823.795" height="368.685"/></clipPath><clipPath id="clip3"><rect x="0" y="0" width="1398" height="996"/></clipPath></defs><g clip-path="url(#clip1)" transform="translate(-862 -79)"><g clip-path="url(#clip2)" filter="url(#fx0)" transform="matrix(1.99928 0 0 1.999 862 78)"><g clip-path="url(#clip3)" transform="translate(-5.68434e-14 0)"><path d="M432.288-279.984 506.16-279.984 506.16-154.128 432.288-154.128 432.288-125.856C432.288-112.48 434.872-103.664 440.04-99.408 445.208-95.152 456.304-93.024 473.328-93.024L500.688-93.024 500.688 0 203.376 0 203.376-93.024 245.328-93.024C260.528-93.024 270.712-95.608 275.88-100.776 281.048-105.944 283.632-116.736 283.632-133.152L283.632-154.128 31.92-154.128 31.92-303.696 288.192-626.544 432.288-626.544ZM288.192-279.984 288.192-425.904 286.368-425.904 167.808-279.984ZM1046.32-320.112C1046.32-206.416 1026.86-122.208 987.947-67.488 949.035-12.768 889.755 14.592 810.107 14.592 728.027 14.592 669.051-11.248 633.179-62.928 597.307-114.608 579.371-193.952 579.371-300.96 579.371-411.616 599.891-493.544 640.931-546.744 681.971-599.944 742.923-626.544 823.787-626.544 900.395-626.544 956.635-601.92 992.507-552.672 1028.38-503.424 1046.32-425.904 1046.32-320.112ZM813.755-103.056C832.603-103.056 847.043-110.504 857.075-125.4 867.107-140.296 874.099-162.944 878.051-193.344 882.003-223.744 883.979-264.48 883.979-315.552 883.979-363.584 882.003-401.28 878.051-428.64 874.099-456 867.107-475.912 857.075-488.376 847.043-500.84 832.907-507.072 814.667-507.072 796.427-507.072 782.139-500.08 771.803-486.096 761.467-472.112 754.171-449.92 749.915-419.52 745.659-389.12 743.531-347.776 743.531-295.488 743.531-247.456 745.811-209.608 750.371-181.944 754.931-154.28 762.227-134.216 772.259-121.752 782.291-109.288 796.123-103.056 813.755-103.056ZM1516.25-279.984 1590.12-279.984 1590.12-154.128 1516.25-154.128 1516.25-125.856C1516.25-112.48 1518.83-103.664 1524-99.408 1529.17-95.152 1540.26-93.024 1557.29-93.024L1584.65-93.024 1584.65 0 1287.33 0 1287.33-93.024 1329.29-93.024C1344.49-93.024 1354.67-95.608 1359.84-100.776 1365.01-105.944 1367.59-116.736 1367.59-133.152L1367.59-154.128 1115.88-154.128 1115.88-303.696 1372.15-626.544 1516.25-626.544ZM1372.15-279.984 1372.15-425.904 1370.33-425.904 1251.77-279.984Z" fill="#FFFFFF" transform="matrix(0.500179 0 0 0.500251 292.296 594)"/></g></g><text fill="#FFFFFF" font-family="Amasis MT Pro Black,Amasis MT Pro Black_MSFontService,sans-serif" font-weight="900" font-size="912" transform="matrix(1 0 0 1 1446.38 1239)">404</text><text fill="#FFFFFF" font-family="Agency FB,Agency FB_MSFontService,sans-serif" font-weight="400" font-stretch="condensed" font-size="147" transform="matrix(1 0 0 1 1538.91 1556)">PARECE</text><text fill="#FFFFFF" font-family="Agency FB,Agency FB_MSFontService,sans-serif" font-weight="400" font-stretch="condensed" font-size="147" transform="matrix(1 0 0 1 1915.32 1556)">QUE</text><text fill="#FFFFFF" font-family="Agency FB,Agency FB_MSFontService,sans-serif" font-weight="400" font-stretch="condensed" font-size="147" transform="matrix(1 0 0 1 2126.15 1556)">ESTÁS</text><text fill="#FFFFFF" font-family="Agency FB,Agency FB_MSFontService,sans-serif" font-weight="400" font-stretch="condensed" font-size="147" transform="matrix(1 0 0 1 2438.39 1556)">PERDIDO</text><text fill="#FFFFFF" font-family="Agency FB,Agency FB_MSFontService,sans-serif" font-weight="400" font-stretch="condensed" font-size="147" transform="matrix(1 0 0 1 2863.49 1556)">EN</text><text fill="#FFFFFF" font-family="Agency FB,Agency FB_MSFontService,sans-serif" font-weight="400" font-stretch="condensed" font-size="147" transform="matrix(1 0 0 1 1999.81 1732)">EL</text><text fill="#FFFFFF" font-family="Agency FB,Agency FB_MSFontService,sans-serif" font-weight="400" font-stretch="condensed" font-size="147" transform="matrix(1 0 0 1 2129.86 1732)">ESPACI</text><text fill="#FFFFFF" font-family="Agency FB,Agency FB_MSFontService,sans-serif" font-weight="400" font-stretch="condensed" font-size="147" transform="matrix(1 0 0 1 2453.56 1732)">O</text><text fill="#FFFFFF" font-family="Calibri,Calibri_MSFontService,sans-serif" font-weight="400" font-size="83" transform="matrix(1 0 0 1 1413.18 1877)">La página que estás buscando puede que no exista</text></g></svg>