<svg width="2794" height="1989" xmlns="http://www.w3.org/2000/svg" xmlns:xlink="http://www.w3.org/1999/xlink" xml:space="preserve" overflow="hidden"><defs><filter id="fx0" x="-10%" y="-10%" width="120%" height="120%" filterUnits="userSpaceOnUse" primitiveUnits="userSpaceOnUse"><feComponentTransfer color-interpolation-filters="sRGB"><feFuncR type="discrete" tableValues="0 0"/><feFuncG type="discrete" tableValues="0 0"/><feFuncB type="discrete" tableValues="0 0"/><feFuncA type="linear" slope="0.4" intercept="0"/></feComponentTransfer><feGaussianBlur stdDeviation="5.99092 5.99178"/></filter><clipPath id="clip1"><rect x="862" y="79" width="2794" height="1989"/></clipPath><clipPath id="clip2"><rect x="299.607" y="255.628" width="810.79" height="368.685"/></clipPath><clipPath id="clip3"><rect x="0" y="0" width="1398" height="996"/></clipPath></defs><g clip-path="url(#clip1)" transform="translate(-862 -79)"><g clip-path="url(#clip2)" filter="url(#fx0)" transform="matrix(1.99928 0 0 1.999 862 78)"><g clip-path="url(#clip3)" transform="translate(-5.68434e-14 0)"><path d="M458.736-483.36 211.584-483.36 207.936-391.248C238.944-404.624 269.952-411.312 300.96-411.312 330.752-411.312 359.48-405.232 387.144-393.072 414.808-380.912 437.76-360.088 456-330.6 474.24-301.112 483.36-262.048 483.36-213.408 483.36-155.04 467.552-102.448 435.936-55.632 404.32-8.816 345.344 14.592 259.008 14.592 179.36 14.592 114.304-2.736 63.84-37.392L63.84-197.904 195.168-197.904 195.168-155.952C195.168-115.824 213.408-95.76 249.888-95.76 273.6-95.76 290.776-105.64 301.416-125.4 312.056-145.16 317.376-169.936 317.376-199.728 317.376-233.776 311.904-259.464 300.96-276.792 290.016-294.12 274.208-302.784 253.536-302.784 244.416-302.784 235.296-300.656 226.176-296.4 217.056-292.144 208.544-283.024 200.64-269.04L72.96-273.6 89.376-611.952 458.736-611.952ZM1046.32-320.112C1046.32-206.416 1026.86-122.208 987.947-67.488 949.035-12.768 889.755 14.592 810.107 14.592 728.027 14.592 669.051-11.248 633.179-62.928 597.307-114.608 579.371-193.952 579.371-300.96 579.371-411.616 599.891-493.544 640.931-546.744 681.971-599.944 742.923-626.544 823.787-626.544 900.395-626.544 956.635-601.92 992.507-552.672 1028.38-503.424 1046.32-425.904 1046.32-320.112ZM813.755-103.056C832.603-103.056 847.043-110.504 857.075-125.4 867.107-140.296 874.099-162.944 878.051-193.344 882.003-223.744 883.979-264.48 883.979-315.552 883.979-363.584 882.003-401.28 878.051-428.64 874.099-456 867.107-475.912 857.075-488.376 847.043-500.84 832.907-507.072 814.667-507.072 796.427-507.072 782.139-500.08 771.803-486.096 761.467-472.112 754.171-449.92 749.915-419.52 745.659-389.12 743.531-347.776 743.531-295.488 743.531-247.456 745.811-209.608 750.371-181.944 754.931-154.28 762.227-134.216 772.259-121.752 782.291-109.288 796.123-103.056 813.755-103.056ZM1588.29-320.112C1588.29-206.416 1568.84-122.208 1529.93-67.488 1491.01-12.768 1431.73 14.592 1352.09 14.592 1270.01 14.592 1211.03-11.248 1175.16-62.928 1139.29-114.608 1121.35-193.952 1121.35-300.96 1121.35-411.616 1141.87-493.544 1182.91-546.744 1223.95-599.944 1284.9-626.544 1365.77-626.544 1442.37-626.544 1498.61-601.92 1534.49-552.672 1570.36-503.424 1588.29-425.904 1588.29-320.112ZM1355.73-103.056C1374.58-103.056 1389.02-110.504 1399.05-125.4 1409.09-140.296 1416.08-162.944 1420.03-193.344 1423.98-223.744 1425.96-264.48 1425.96-315.552 1425.96-363.584 1423.98-401.28 1420.03-428.64 1416.08-456 1409.09-475.912 1399.05-488.376 1389.02-500.84 1374.89-507.072 1356.65-507.072 1338.41-507.072 1324.12-500.08 1313.78-486.096 1303.45-472.112 1296.15-449.92 1291.89-419.52 1287.64-389.12 1285.51-347.776 1285.51-295.488 1285.51-247.456 1287.79-209.608 1292.35-181.944 1296.91-154.28 1304.21-134.216 1314.24-121.752 1324.27-109.288 1338.1-103.056 1355.73-103.056Z" fill="#FFFFFF" transform="matrix(0.500179 0 0 0.500251 292.296 594)"/></g></g><text fill="#FFFFFF" font-family="Amasis MT Pro Black,Amasis MT Pro Black_MSFontService,sans-serif" font-weight="900" font-size="912" transform="matrix(1 0 0 1 1446.38 1239)">500</text><text fill="#FFFFFF" font-family="Agency FB,Agency FB_MSFontService,sans-serif" font-weight="400" font-stretch="condensed" font-size="147" transform="matrix(1 0 0 1 1560.68 1556)">ERROR INTERNO DEL SERVIDOR</text></g></svg>